<svg width="255" height="60" viewBox="0 0 255 60" fill="none" xmlns="http://www.w3.org/2000/svg">
<rect width="255" height="60" fill="#F6F8FB"/>
<path fill-rule="evenodd" clip-rule="evenodd" d="M103 47.5182H104.46L104.542 46.7546H104.565C104.68 46.9567 104.834 47.1336 105.019 47.2748C105.187 47.4032 105.378 47.4987 105.582 47.5564C105.782 47.6163 105.989 47.6453 106.198 47.6423C106.524 47.6444 106.848 47.5794 107.148 47.4513C107.449 47.3232 107.72 47.1348 107.945 46.8978C108.194 46.6369 108.389 46.3285 108.517 45.991C108.666 45.5712 108.739 45.1284 108.732 44.6833C108.745 44.1778 108.645 43.6757 108.441 43.2133C108.267 42.8273 107.989 42.497 107.639 42.2587C107.289 42.0289 106.879 41.9077 106.46 41.9103C106.113 41.9063 105.77 41.9779 105.453 42.1203C105.192 42.2398 104.964 42.4218 104.79 42.6501H104.766V39.5144H103.043V45.8717C103.043 46.0864 103.043 46.2917 103.043 46.5017C103.043 46.7117 103.043 46.8978 103.043 47.0744C103.043 47.251 103.043 47.3942 103.043 47.5182H103ZM104.804 45.4803C104.778 45.3805 104.766 45.2779 104.766 45.1748V44.373C104.766 44.3158 104.766 44.2585 104.766 44.206C104.77 44.1526 104.78 44.0998 104.795 44.0485C104.829 43.8872 104.899 43.7356 105 43.6046C105.094 43.4826 105.213 43.3818 105.348 43.3087C105.485 43.2367 105.637 43.199 105.792 43.1989C106.031 43.1923 106.264 43.2662 106.455 43.4089C106.635 43.5507 106.772 43.7389 106.852 43.953C106.941 44.2042 106.984 44.4693 106.98 44.7358C107.003 45.1439 106.891 45.5481 106.661 45.886C106.508 46.0749 106.295 46.2069 106.058 46.2605C105.821 46.3142 105.573 46.2865 105.353 46.1819C105.217 46.1139 105.098 46.016 105.005 45.8955C104.911 45.7723 104.844 45.6309 104.809 45.4803H104.804ZM110.021 46.4348V42.0058H111.734V46.8692C111.747 47.3668 111.68 47.8633 111.534 48.3391C111.425 48.7011 111.226 49.0296 110.956 49.2937C110.779 49.4523 110.578 49.5813 110.36 49.6755C110.127 49.7799 109.881 49.8537 109.629 49.8951C109.365 49.9434 109.096 49.9674 108.827 49.9666L108.656 48.6398C108.858 48.6214 109.058 48.5814 109.252 48.5205C109.41 48.4704 109.554 48.3837 109.672 48.2676C109.763 48.1721 109.831 48.0581 109.873 47.9335C109.932 47.7506 109.97 47.5617 109.987 47.3703C109.987 47.1317 110.021 46.8357 110.021 46.473V46.4348ZM110.856 41.3137C111.022 41.3151 111.186 41.2758 111.333 41.1992C111.462 41.1256 111.571 41.0205 111.648 40.8937C111.723 40.7611 111.762 40.6116 111.763 40.4594C111.76 40.3039 111.719 40.1516 111.643 40.0155C111.572 39.8845 111.464 39.7768 111.333 39.7053C111.185 39.6324 111.021 39.5945 110.856 39.5945C110.69 39.5945 110.527 39.6324 110.379 39.7053C110.247 39.778 110.138 39.8853 110.064 40.0155C109.991 40.152 109.955 40.3049 109.959 40.4594C109.956 40.6108 109.992 40.7603 110.064 40.8937C110.139 41.0204 110.246 41.1255 110.374 41.1992C110.52 41.2783 110.685 41.3178 110.851 41.3137H110.856ZM113.018 47.5182H114.483L114.564 46.7546H114.588C114.695 46.9485 114.84 47.1193 115.014 47.2569C115.187 47.3945 115.387 47.4963 115.6 47.5564C115.801 47.616 116.01 47.6449 116.22 47.6423C116.54 47.6432 116.856 47.5799 117.151 47.4562C117.458 47.3276 117.736 47.1376 117.967 46.8978C118.215 46.6367 118.409 46.3283 118.535 45.991C118.688 45.5722 118.762 45.1289 118.755 44.6833C118.767 44.1778 118.668 43.6757 118.464 43.2133C118.289 42.8259 118.01 42.4952 117.657 42.2587C117.308 42.0276 116.897 41.9063 116.478 41.9103C116.133 41.907 115.791 41.9786 115.476 42.1203C115.212 42.2385 114.983 42.4206 114.808 42.6501V39.5144H113.066V45.8717C113.066 46.0864 113.066 46.2917 113.066 46.5017C113.066 46.7117 113.066 46.8978 113.066 47.0744C113.066 47.251 113.066 47.3942 113.066 47.5182H113.018ZM114.822 45.4803C114.798 45.3803 114.787 45.2777 114.789 45.1748V44.373C114.789 44.3158 114.789 44.2585 114.789 44.206C114.791 44.1528 114.799 44.1 114.812 44.0485C114.849 43.8879 114.919 43.7367 115.018 43.6046C115.115 43.4835 115.235 43.3829 115.371 43.3087C115.508 43.2367 115.66 43.199 115.815 43.1989C116.053 43.193 116.287 43.2669 116.478 43.4089C116.657 43.5497 116.793 43.7384 116.87 43.953C116.959 44.2042 117.002 44.4693 116.998 44.7358C117.022 45.1433 116.912 45.5475 116.683 45.886C116.581 46.0174 116.449 46.1227 116.298 46.1932C116.147 46.2637 115.981 46.2975 115.815 46.2917C115.66 46.2904 115.507 46.2541 115.368 46.1855C115.23 46.1169 115.108 46.0178 115.013 45.8955C114.918 45.7726 114.85 45.6311 114.812 45.4803H114.822ZM119.566 47.2605C119.782 47.3825 120.013 47.4756 120.253 47.5373C120.531 47.6078 120.816 47.643 121.103 47.6423C121.482 47.6535 121.858 47.5801 122.205 47.4276C122.489 47.3067 122.731 47.106 122.902 46.8501C123.064 46.5948 123.147 46.2977 123.141 45.9957C123.147 45.7489 123.091 45.5043 122.979 45.2846C122.862 45.0754 122.698 44.8958 122.501 44.7596C122.257 44.5934 121.993 44.4602 121.714 44.3635C121.504 44.284 121.3 44.1899 121.103 44.0819C120.971 44.0108 120.856 43.9133 120.764 43.7955C120.691 43.6819 120.654 43.5487 120.659 43.4137C120.658 43.2806 120.694 43.1498 120.764 43.0367C120.841 42.92 120.949 42.8261 121.074 42.7646C121.234 42.6953 121.407 42.6642 121.58 42.6739C121.741 42.6738 121.901 42.693 122.057 42.7312C122.188 42.7647 122.315 42.8078 122.439 42.8601C122.547 42.911 122.638 42.9587 122.711 43.0033L122.95 42.2778C122.774 42.1744 122.584 42.0957 122.387 42.0439C122.137 41.9741 121.878 41.9403 121.618 41.9437C121.268 41.9335 120.921 42.0088 120.607 42.1633C120.344 42.2932 120.122 42.4909 119.962 42.736C119.812 42.9782 119.733 43.2576 119.733 43.5426C119.735 43.8734 119.863 44.1911 120.091 44.4303C120.395 44.7377 120.768 44.9669 121.179 45.0985C121.385 45.1667 121.582 45.258 121.766 45.3705C121.899 45.446 122.012 45.5524 122.096 45.6807C122.166 45.807 122.203 45.9491 122.203 46.0936C122.203 46.2381 122.166 46.3802 122.096 46.5064C122.007 46.6331 121.885 46.7323 121.742 46.7928C121.554 46.8675 121.353 46.9032 121.151 46.8978C120.99 46.8967 120.83 46.8775 120.673 46.8405C120.519 46.805 120.367 46.7571 120.22 46.6973C120.094 46.6475 119.973 46.5869 119.857 46.516L119.609 47.2605H119.566ZM124.878 48.6923C124.73 48.807 124.57 48.9061 124.401 48.9882C124.267 49.062 124.126 49.1227 123.981 49.1696L124.229 50.0001C124.335 49.979 124.439 49.9487 124.539 49.9094C124.685 49.8528 124.825 49.7842 124.959 49.7041C125.13 49.6063 125.29 49.4911 125.437 49.3605C125.678 49.1466 125.89 48.901 126.067 48.6303C126.289 48.2785 126.487 47.9117 126.658 47.5326C126.854 47.0935 127.074 46.578 127.307 45.9432L128.797 42.0535H127.785L126.692 45.2751C126.625 45.4707 126.563 45.6664 126.506 45.8669C126.448 46.0673 126.391 46.2439 126.343 46.4062C126.296 46.2392 126.238 46.053 126.176 45.8621C126.114 45.6712 126.052 45.4707 125.99 45.2894L124.792 42.063H123.694L125.704 47.103C125.704 47.1603 125.747 47.208 125.761 47.251C125.767 47.2841 125.767 47.3181 125.761 47.3512C125.767 47.3859 125.767 47.4215 125.761 47.4562L125.709 47.5898C125.601 47.8241 125.466 48.0451 125.308 48.2485C125.184 48.4229 125.042 48.583 124.883 48.7257L124.878 48.6923ZM129.298 46.0673C129.297 46.2647 129.332 46.4604 129.403 46.6448C129.477 46.8234 129.585 46.9856 129.722 47.1221C129.869 47.2753 130.046 47.3957 130.243 47.4753C130.472 47.566 130.717 47.6113 130.963 47.6089C131.207 47.6101 131.449 47.5698 131.679 47.4896C131.879 47.4181 132.067 47.3185 132.238 47.1937C132.389 47.0827 132.523 46.9491 132.634 46.7976L132.724 47.4848H133.612C133.584 47.2987 133.564 47.0935 133.55 46.8692C133.536 46.6448 133.55 46.3919 133.55 46.1771V44.1821C133.551 43.9075 133.521 43.6337 133.459 43.366C133.4 43.1089 133.292 42.8657 133.14 42.6501C132.975 42.4256 132.754 42.248 132.5 42.1346C132.176 41.9978 131.826 41.9327 131.474 41.9437C131.142 41.9424 130.811 41.9857 130.491 42.0726C130.201 42.1496 129.925 42.2685 129.67 42.4258L129.909 43.0796C130.113 42.9477 130.337 42.8479 130.572 42.7837C130.818 42.7112 131.074 42.6743 131.331 42.6739C131.558 42.6682 131.783 42.7139 131.989 42.8076C132.14 42.8825 132.269 42.9962 132.362 43.1369C132.443 43.2618 132.5 43.4011 132.529 43.5473C132.556 43.6745 132.57 43.804 132.572 43.9339V44.0819C131.967 44.0631 131.364 44.1372 130.782 44.3014C130.364 44.4141 129.987 44.6424 129.694 44.9601C129.435 45.2737 129.3 45.6706 129.312 46.0769L129.298 46.0673ZM130.29 45.9528C130.281 45.7221 130.354 45.4955 130.496 45.3133C130.642 45.1436 130.829 45.0139 131.04 44.9362C131.278 44.8479 131.527 44.7886 131.779 44.7596C132.052 44.7294 132.326 44.7183 132.6 44.7262V45.6807C132.605 45.7316 132.605 45.7827 132.6 45.8335L132.557 45.991C132.498 46.1536 132.409 46.304 132.295 46.4348C132.174 46.5777 132.022 46.6918 131.851 46.7689C131.655 46.86 131.442 46.9057 131.226 46.9026C131.061 46.909 130.897 46.8745 130.749 46.8023C130.605 46.7378 130.487 46.6291 130.41 46.4921C130.318 46.3295 130.273 46.1443 130.281 45.9576L130.29 45.9528ZM135.149 47.5087H136.142V44.6117C136.137 44.5322 136.137 44.4525 136.142 44.373C136.147 44.2975 136.159 44.2226 136.175 44.1487C136.216 43.9157 136.3 43.6923 136.423 43.4901C136.544 43.3041 136.708 43.1502 136.901 43.0414C137.09 42.9312 137.306 42.8736 137.526 42.8744H137.707C137.759 42.8789 137.81 42.8885 137.86 42.903V41.9485H137.731H137.583C137.363 41.9469 137.146 41.9959 136.948 42.0917C136.747 42.1936 136.569 42.3348 136.423 42.5069C136.261 42.6881 136.134 42.8987 136.051 43.1273H136.018L135.984 42.0439H135.106C135.106 42.3017 135.135 42.5737 135.139 42.8505C135.144 43.1273 135.139 43.428 135.139 43.7478V47.4992L135.149 47.5087ZM138.843 47.5087H139.826V42.063H138.843V47.5182V47.5087ZM139.32 41.1276C139.408 41.1313 139.495 41.1176 139.577 41.0872C139.659 41.0569 139.734 41.0106 139.798 40.951C139.852 40.8937 139.894 40.8262 139.922 40.7525C139.95 40.6787 139.963 40.6002 139.96 40.5214C139.962 40.3591 139.903 40.202 139.793 40.0824C139.736 40.0226 139.667 39.9755 139.59 39.9443C139.514 39.913 139.432 39.8983 139.349 39.901C139.237 39.9011 139.126 39.9307 139.029 39.9869C138.937 40.0423 138.861 40.1207 138.808 40.2144C138.756 40.3081 138.728 40.4139 138.729 40.5214C138.729 40.6804 138.788 40.8335 138.896 40.951C138.951 41.0088 139.018 41.0544 139.092 41.0848C139.166 41.1152 139.245 41.1298 139.325 41.1276H139.32ZM141.053 46.0769C141.054 46.2745 141.091 46.4703 141.163 46.6544C141.235 46.8475 141.348 47.0232 141.492 47.1704C141.637 47.3175 141.811 47.4327 142.003 47.5087C142.232 47.6009 142.477 47.6464 142.723 47.6423C142.965 47.6436 143.206 47.6032 143.434 47.523C143.635 47.4516 143.825 47.3519 143.998 47.2271C144.147 47.1149 144.279 46.9814 144.389 46.831L144.48 47.5182H145.367C145.339 47.3321 145.324 47.1269 145.31 46.9026C145.296 46.6782 145.31 46.4253 145.31 46.2105V44.1821C145.311 43.9075 145.281 43.6337 145.219 43.366C145.162 43.1082 145.054 42.8646 144.9 42.6501C144.737 42.4258 144.518 42.2481 144.265 42.1346C143.94 41.9988 143.59 41.9337 143.239 41.9437C142.905 41.9421 142.573 41.9854 142.251 42.0726C141.963 42.1495 141.688 42.2685 141.435 42.4258L141.669 43.0796C141.873 42.9477 142.097 42.8479 142.332 42.7837C142.578 42.7115 142.834 42.6746 143.091 42.6739C143.318 42.6682 143.543 42.7139 143.749 42.8076C143.902 42.8803 144.031 42.9944 144.122 43.1369C144.205 43.2616 144.263 43.4009 144.294 43.5473C144.317 43.675 144.33 43.8043 144.332 43.9339V44.0819C143.727 44.0631 143.124 44.1372 142.542 44.3014C142.114 44.4178 141.728 44.6547 141.43 44.9839C141.174 45.2988 141.038 45.6949 141.048 46.1007L141.053 46.0769ZM142.046 45.9623C142.039 45.732 142.111 45.5062 142.251 45.3228C142.397 45.1532 142.585 45.0234 142.795 44.9457C143.035 44.8568 143.285 44.7976 143.539 44.7692C143.81 44.739 144.083 44.7278 144.356 44.7358V45.6903C144.36 45.7411 144.36 45.7922 144.356 45.843L144.327 45.9957C144.267 46.1584 144.178 46.3088 144.064 46.4396C143.944 46.5813 143.794 46.6952 143.625 46.7737C143.428 46.8647 143.213 46.9104 142.995 46.9073C142.83 46.9137 142.666 46.8793 142.518 46.8071C142.375 46.7426 142.256 46.6338 142.179 46.4969C142.089 46.3335 142.045 46.1489 142.05 45.9623H142.046ZM146.914 47.5182H147.897V44.2298C147.889 44.1473 147.889 44.0642 147.897 43.9817C147.909 43.9052 147.928 43.8301 147.954 43.7573C148.018 43.5825 148.114 43.4207 148.236 43.2801C148.368 43.1268 148.53 43.0032 148.713 42.9173C148.899 42.8268 149.103 42.7795 149.31 42.7789C149.576 42.7685 149.838 42.8474 150.054 43.0033C150.242 43.1536 150.382 43.3562 150.455 43.5855C150.539 43.8494 150.579 44.125 150.574 44.4017V47.5326H151.553V44.2823C151.561 43.8858 151.496 43.4911 151.362 43.1178C151.259 42.846 151.096 42.6011 150.885 42.4019C150.705 42.2397 150.494 42.1163 150.264 42.0392C149.892 41.9284 149.496 41.9284 149.124 42.0392C148.958 42.0919 148.798 42.1606 148.646 42.2444C148.496 42.3314 148.357 42.4355 148.231 42.5546C148.113 42.6719 148.011 42.8034 147.926 42.946V39.5144H146.942L146.914 47.5182Z" fill="#074268"/>
<path fill-rule="evenodd" clip-rule="evenodd" d="M132.953 25.1962L134.385 24.3658C134.85 24.1004 135.4 24.0293 135.917 24.1678C136.434 24.3064 136.875 24.6434 137.144 25.1055C137.409 25.568 137.481 26.1166 137.343 26.6316C137.205 27.1466 136.87 27.5863 136.409 27.8546L134.977 28.6851C134.747 28.8177 134.494 28.9038 134.231 28.9384C133.968 28.973 133.701 28.9555 133.445 28.8868C133.188 28.8181 132.948 28.6996 132.738 28.538C132.527 28.3765 132.351 28.1751 132.218 27.9453C131.952 27.4811 131.88 26.9302 132.019 26.4132C132.157 25.8962 132.495 25.4552 132.958 25.1867L132.953 25.1962ZM118.506 27.0242L127.785 21.674C128.248 21.4076 128.798 21.3358 129.314 21.4745C129.831 21.6132 130.271 21.951 130.538 22.4137C130.806 22.8773 130.878 23.4278 130.74 23.9447C130.603 24.4617 130.266 24.9031 129.803 25.1724L120.525 30.5226C120.294 30.6545 120.039 30.7396 119.775 30.7729C119.511 30.8062 119.243 30.787 118.986 30.7165C118.729 30.6461 118.489 30.5256 118.279 30.3621C118.069 30.1986 117.893 29.9952 117.762 29.7637C117.495 29.2995 117.423 28.7486 117.562 28.2316C117.701 27.7146 118.039 27.2736 118.502 27.0051L118.506 27.0242ZM132.953 18.6862L139.946 14.6437C140.41 14.3784 140.96 14.3073 141.477 14.4458C141.994 14.5844 142.435 14.9214 142.704 15.3835C142.837 15.6132 142.923 15.8668 142.958 16.1297C142.992 16.3927 142.975 16.6599 142.906 16.9161C142.837 17.1723 142.719 17.4124 142.557 17.6228C142.396 17.8332 142.194 18.0097 141.964 18.1421L134.972 22.1799C134.743 22.3125 134.489 22.3986 134.226 22.4332C133.963 22.4678 133.696 22.4503 133.44 22.3816C133.184 22.3129 132.943 22.1944 132.733 22.0328C132.523 21.8713 132.346 21.6699 132.214 21.4401C132.081 21.2108 131.995 20.9576 131.961 20.695C131.926 20.4323 131.944 20.1655 132.012 19.9097C132.081 19.6539 132.2 19.4142 132.361 19.2042C132.523 18.9943 132.724 18.8183 132.953 18.6862ZM118.506 20.5094C118.044 20.778 117.705 21.2187 117.566 21.7354C117.427 22.2521 117.497 22.803 117.762 23.268C118.03 23.7311 118.471 24.069 118.988 24.2076C119.505 24.3463 120.056 24.2744 120.521 24.0078L129.794 18.6576C130.25 18.3885 130.582 17.9514 130.719 17.4402C130.857 16.929 130.788 16.3842 130.529 15.9228C130.265 15.4595 129.828 15.1194 129.314 14.9764C128.8 14.8334 128.25 14.8991 127.785 15.1592L118.506 20.5094ZM132.953 12.1715C132.724 12.3035 132.523 12.4795 132.361 12.6895C132.2 12.8994 132.081 13.1392 132.012 13.395C131.944 13.6508 131.926 13.9176 131.961 14.1802C131.995 14.4428 132.081 14.696 132.214 14.9253C132.346 15.1551 132.523 15.3565 132.733 15.5181C132.943 15.6796 133.184 15.7981 133.44 15.8668C133.696 15.9355 133.963 15.9531 134.226 15.9185C134.489 15.8839 134.743 15.7978 134.972 15.6651L138.261 13.756C138.722 13.4885 139.059 13.0492 139.198 12.5341C139.336 12.019 139.265 11.4699 139.001 11.0069C138.731 10.5448 138.29 10.2078 137.773 10.0692C137.257 9.93068 136.706 10.0018 136.242 10.2672L132.953 12.1762V12.1715ZM118.506 33.5389C118.043 33.8066 117.704 34.2473 117.564 34.7644C117.425 35.2815 117.496 35.8328 117.762 36.2976C118.03 36.7606 118.471 37.0985 118.988 37.2371C119.505 37.3758 120.056 37.3039 120.521 37.0373L129.794 31.6728C130.256 31.4035 130.593 30.9621 130.731 30.4452C130.869 29.9282 130.796 29.3778 130.529 28.9142C130.259 28.4564 129.82 28.1235 129.306 27.9877C128.792 27.8519 128.245 27.9241 127.785 28.1887L118.506 33.5389Z" fill="url(#paint0_linear)"/>
<defs>
<linearGradient id="paint0_linear" x1="143.315" y1="19.6503" x2="117.356" y2="26.6089" gradientUnits="userSpaceOnUse">
<stop stop-color="#FFED00"/>
<stop offset="0.46" stop-color="#074268"/>
<stop offset="0.56" stop-color="#074268"/>
<stop offset="0.98" stop-color="#009FE3"/>
</linearGradient>
</defs>
</svg>
